<svg xmlns="http://www.w3.org/2000/svg" width="154" height="77.131" viewBox="0 0 154 77.131"><g transform="translate(-176.789 -522.207)"><g transform="translate(176.789 522.207)"><path d="M199.39,551.12H184.277a7.349,7.349,0,0,1-5.322-2.1,6.462,6.462,0,0,1-2.166-4.758V528.973a6.413,6.413,0,0,1,2.121-4.692,7.249,7.249,0,0,1,5.278-2.074h15.067l-1.4,7.217H186.036c-.331,0-.5.271-.5.813V543.5q0,.5.27.5h5.007v-4.151h-3.112l.9-6.224H199.39Z" transform="translate(-176.789 -522.207)" fill="#061b2f"/><path d="M223.813,544.535a6.425,6.425,0,0,1-1.895,4.737,6.316,6.316,0,0,1-4.646,1.895H207.123a6.277,6.277,0,0,1-4.646-1.917,6.449,6.449,0,0,1-1.895-4.714V529.558a7.97,7.97,0,0,1,1.76-5.187,6.082,6.082,0,0,1,5.006-2.164h9.7a6.188,6.188,0,0,1,4.894,2.142,7.648,7.648,0,0,1,1.872,5.209Zm-8.571-.993V529.92c0-.3-.179-.452-.54-.452h-4.963c-.27,0-.406.152-.406.452v13.713a.319.319,0,0,0,.361.361h5.053a.456.456,0,0,0,.339-.18A.522.522,0,0,0,215.241,543.542Z" transform="translate(-173.426 -522.207)" fill="#061b2f"/><path d="M243.657,551.166H224.216V522.207h8.66v21.787h10.781Z" transform="translate(-170.086 -522.207)" fill="#061b2f"/><path d="M267.18,542.55a8.241,8.241,0,0,1-2.639,5.977,8.151,8.151,0,0,1-5.886,2.639h-14.48V522.207h14.254a8.413,8.413,0,0,1,6.157,2.593,8.315,8.315,0,0,1,2.593,6.067Zm-8.57.587V530.281q0-.812-.857-.813h-4.827v14.57h4.782A.8.8,0,0,0,258.609,543.137Z" transform="translate(-167.265 -522.207)" fill="#061b2f"/><path d="M289.434,551.166H268.323V522.207h21.111v7.172H277.029v3.609h10.6V540.2h-10.6v3.789h12.405Z" transform="translate(-163.852 -522.207)" fill="#061b2f"/><path d="M314.691,551.212h-5.864l-9.383-12.361v12.361h-8.751v-29h6.043l9.338,11.953V522.207h8.616Z" transform="translate(-160.691 -522.207)" fill="#061b2f"/><g transform="translate(0 34.856)"><path d="M202.323,559.6H193.54v20.649h-8.355V559.6h-8.4v-6.813h25.534Z" transform="translate(-176.789 -552.742)" fill="#061b2f"/><path d="M223.633,580.251h-8.1v-10.41h-5.141v10.41h-8.269v-27.5h8.269v10.239h5.141V552.747h8.1Z" transform="translate(-173.208 -552.747)" fill="#061b2f"/><path d="M248.269,580.251H238.93a11.957,11.957,0,0,1-.922-2.463,12.89,12.89,0,0,1-.192-2.508v-3.427a1.394,1.394,0,0,0-.45-1.005,1.488,1.488,0,0,0-1.092-.451h-2.828v9.854h-8.311v-27.5H237.6a8.044,8.044,0,0,1,5.333,2.163,6.169,6.169,0,0,1,2.508,4.649v3.728a5.832,5.832,0,0,1-2.014,4.755,7.094,7.094,0,0,1,2.014,4.842v2.4a3.961,3.961,0,0,0,.471,1.907A21.616,21.616,0,0,0,248.269,580.251Zm-10.323-17.308v-2.914c0-.257-.286-.386-.857-.386h-3.642v3.9h3.941C237.759,563.542,237.945,563.343,237.945,562.943Z" transform="translate(-169.956 -552.747)" fill="#061b2f"/><path d="M267.856,580.251h-20.05v-27.5h20.05v6.811H256.075v3.427h10.068v6.855H256.075v3.6h11.781Z" transform="translate(-166.752 -552.747)" fill="#061b2f"/><path d="M290.453,580.293h-8.1v-7.968h-4.283v7.968H269.8V559.73a6.417,6.417,0,0,1,2.292-4.905,7.537,7.537,0,0,1,5.206-2.077h5.826a7.242,7.242,0,0,1,5.12,2.077,6.526,6.526,0,0,1,2.206,4.905Zm-8.1-14.994v-5.656h-4.283V565.3Z" transform="translate(-163.643 -552.747)" fill="#061b2f"/><path d="M314.324,572.069a7.829,7.829,0,0,1-2.506,5.676,7.742,7.742,0,0,1-5.591,2.506H292.474v-27.5h13.538a7.989,7.989,0,0,1,5.847,2.463,7.894,7.894,0,0,1,2.464,5.761Zm-8.14.556v-12.21c0-.514-.273-.772-.815-.772h-4.584v13.839h4.541A.757.757,0,0,0,306.184,572.625Z" transform="translate(-160.439 -552.747)" fill="#061b2f"/></g></g><g transform="translate(176.879 590.165)"><path d="M183.63,586.73a1.952,1.952,0,0,1-.735,1.568,2.465,2.465,0,0,1-1.618.614h-1.628v2h-2.781V581.75h4.337a2.438,2.438,0,0,1,1.662.686A2.058,2.058,0,0,1,183.63,584Zm-2.7-.285v-2.226c0-.114-.034-.171-.1-.171h-1.185v2.538h1.185c.048,0,.075-.007.086-.021A.3.3,0,0,0,180.935,586.444Z" transform="translate(-176.868 -581.75)" fill="#061b2f"/><path d="M197.036,590.909h-3.11a3.919,3.919,0,0,1-.306-.821,4.208,4.208,0,0,1-.065-.834v-1.141a.464.464,0,0,0-.15-.336.5.5,0,0,0-.364-.149H192.1v3.281h-2.767V581.75h4.151a2.679,2.679,0,0,1,1.776.721,2.052,2.052,0,0,1,.834,1.548v1.241a1.947,1.947,0,0,1-.67,1.584,2.362,2.362,0,0,1,.67,1.612v.8a1.317,1.317,0,0,0,.158.635A7.106,7.106,0,0,0,197.036,590.909Zm-3.438-5.764v-.97c0-.086-.095-.128-.285-.128H192.1v1.3h1.313C193.535,585.345,193.6,585.279,193.6,585.145Z" transform="translate(-175.106 -581.75)" fill="#061b2f"/><path d="M209.712,588.813a2.029,2.029,0,0,1-.6,1.5,2,2,0,0,1-1.469.6h-3.209a1.984,1.984,0,0,1-1.469-.606,2.037,2.037,0,0,1-.6-1.491v-4.737a2.517,2.517,0,0,1,.556-1.64,1.92,1.92,0,0,1,1.583-.686h3.068a1.957,1.957,0,0,1,1.548.678,2.422,2.422,0,0,1,.591,1.648ZM207,588.5V584.19c0-.095-.057-.143-.171-.143h-1.569c-.086,0-.129.048-.129.143v4.336a.1.1,0,0,0,.114.115h1.6a.145.145,0,0,0,.107-.057A.169.169,0,0,0,207,588.5Z" transform="translate(-173.264 -581.75)" fill="#061b2f"/><path d="M222.549,588.184a2.612,2.612,0,0,1-.834,1.891,2.582,2.582,0,0,1-1.862.834h-4.58V581.75h4.508a2.661,2.661,0,0,1,1.947.821,2.63,2.63,0,0,1,.821,1.919Zm-2.711.186V584.3q0-.257-.27-.257h-1.527v4.608h1.512A.252.252,0,0,0,219.838,588.37Z" transform="translate(-171.44 -581.75)" fill="#061b2f"/><path d="M235.209,588.7a2.028,2.028,0,0,1-.713,1.54,2.3,2.3,0,0,1-1.541.671l-.97.014-1.4-.014a2.3,2.3,0,0,1-1.549-.685,2.038,2.038,0,0,1-.72-1.526v-6.934h2.768v6.391a.483.483,0,0,0,.128.348.386.386,0,0,0,.285.137h.586a.4.4,0,0,0,.3-.137.484.484,0,0,0,.129-.348v-6.391h2.7Z" transform="translate(-169.596 -581.748)" fill="#061b2f"/><path d="M248.222,588.912a1.687,1.687,0,0,1-.77,1.433,3.014,3.014,0,0,1-1.8.549H243.7a2.655,2.655,0,0,1-1.769-.735,2.168,2.168,0,0,1-.842-1.662v-4.379a2.172,2.172,0,0,1,.814-1.633,2.575,2.575,0,0,1,1.754-.735h2a3.133,3.133,0,0,1,1.776.528,1.659,1.659,0,0,1,.792,1.455v1.982h-1.5a1.2,1.2,0,0,1-.9-.335,1.217,1.217,0,0,1-.329-.891v-.442h-1.625c-.01,0-.015.009-.015.029v4.493c0,.019,0,.029.015.029H245.5v-1.269h2.725Z" transform="translate(-167.791 -581.75)" fill="#061b2f"/><path d="M261.868,584.031h-2.924v6.876h-2.781v-6.876h-2.8v-2.268h8.5Z" transform="translate(-166.056 -581.748)" fill="#061b2f"/><path d="M272.653,590.923h-4.779v-2.281h1v-4.594h-1v-2.3h4.779v2.283h-1.069v4.609h1.069Z" transform="translate(-164.006 -581.75)" fill="#061b2f"/><path d="M286.973,588.813a2.033,2.033,0,0,1-.6,1.5,2,2,0,0,1-1.469.6h-3.211a1.986,1.986,0,0,1-1.469-.606,2.041,2.041,0,0,1-.6-1.491v-4.737a2.517,2.517,0,0,1,.556-1.64,1.921,1.921,0,0,1,1.584-.686h3.067a1.957,1.957,0,0,1,1.548.678,2.417,2.417,0,0,1,.592,1.648Zm-2.711-.315V584.19c0-.095-.057-.143-.171-.143h-1.569c-.086,0-.129.048-.129.143v4.336a.1.1,0,0,0,.114.115h1.6a.145.145,0,0,0,.107-.057A.169.169,0,0,0,284.262,588.5Z" transform="translate(-162.345 -581.75)" fill="#061b2f"/><path d="M299.985,590.923h-1.854l-2.967-3.909v3.909H292.4V581.75h1.912l2.953,3.781V581.75h2.724Z" transform="translate(-160.54 -581.75)" fill="#061b2f"/><path d="M312.573,588.969a1.714,1.714,0,0,1-.685,1.383,2.255,2.255,0,0,1-1.44.557h-2.8a2.247,2.247,0,0,1-1.462-.579,1.728,1.728,0,0,1-.692-1.362v-.957l2.525-.014.015.527a.344.344,0,0,0,.042.208c.029.033.095.049.2.049h1.583c.087,0,.129-.047.129-.141v-.857a.169.169,0,0,0-.1-.171l-3.025-1.141q-1.37-.541-1.37-1.612v-1.2a1.69,1.69,0,0,1,.692-1.348,2.282,2.282,0,0,1,1.462-.564h2.825a2.154,2.154,0,0,1,1.427.579,1.722,1.722,0,0,1,.67,1.333v.614l-2.738.385v-.67a.2.2,0,0,0-.015-.094c-.01-.014-.038-.021-.086-.021h-1.712c-.076,0-.114.024-.114.071v.357q0,.043.086.086l3.067,1.3c.2.086.362.16.485.221a3.654,3.654,0,0,1,.463.292,1.305,1.305,0,0,1,.421.492,1.485,1.485,0,0,1,.143.663v1.613Z" transform="translate(-158.688 -581.75)" fill="#061b2f"/></g></g></svg>